/* XPM */
static char *_6415352c65042d8f1d60f55e5364b160dZFspzRDN2rRfkD[] = {
/* columns rows colors chars-per-pixel */
"32 32 189 2 ",
"   c None",
".  c #01050C",
"X  c #03080F",
"o  c #060009",
"O  c #050B12",
"+  c #0A0E15",
"@  c #150614",
"#  c #130A15",
"$  c #1C0D1B",
"%  c #1B0717",
"&  c #051317",
"*  c #041619",
"=  c #0D151B",
"-  c #04181A",
";  c #0B181D",
":  c #0C1017",
">  c #12161D",
",  c #1A121D",
"<  c #11181F",
"1  c #39000A",
"2  c #220F1D",
"3  c #2A061A",
"4  c #32041B",
"5  c #38041C",
"6  c #141A21",
"7  c #1A1F26",
"8  c #2D0F22",
"9  c #3D0520",
"0  c #3A0F25",
"q  c #221220",
"w  c #1D2128",
"e  c #23272D",
"r  c #25292F",
"t  c #2A2F35",
"y  c #262C32",
"u  c #2B3036",
"i  c #30363C",
"p  c #700018",
"a  c #470422",
"s  c #550024",
"d  c #5C0024",
"f  c #530929",
"g  c #5A092A",
"h  c #5B1F39",
"j  c #670329",
"k  c #73022D",
"l  c #7E012F",
"z  c #6A0F31",
"x  c #760832",
"c  c #681136",
"v  c #731437",
"b  c #42212B",
"n  c #472034",
"m  c #41333D",
"M  c #3A3E43",
"N  c #373C41",
"B  c #5B2B41",
"V  c #5A3044",
"C  c #6D334B",
"Z  c #7A3250",
"A  c #742A47",
"S  c #3D4246",
"D  c #3E4449",
"F  c #41464B",
"G  c #53404C",
"H  c #494D52",
"J  c #454B50",
"K  c #4C5256",
"L  c #4E5459",
"P  c #545A5E",
"I  c #525057",
"U  c #574952",
"Y  c #5C5F63",
"T  c #546C6A",
"R  c #67686D",
"E  c #6C6F73",
"W  c #697073",
"Q  c #757A7D",
"!  c #71777B",
"~  c #83002D",
"^  c #8D0131",
"/  c #860030",
"(  c #910235",
")  c #9C0F3E",
"_  c #96153D",
"`  c #A9063D",
"'  c #A4073A",
"]  c #A90642",
"[  c #B30C44",
"{  c #A61748",
"}  c #BC1E52",
"|  c #9D2F59",
" . c #A82856",
".. c #AA395C",
"X. c #AD3C65",
"o. c #BC3361",
"O. c #B43963",
"+. c #C03764",
"@. c #87455F",
"#. c #88536A",
"$. c #BA496E",
"%. c #B6466B",
"&. c #A2546B",
"*. c #BB4E71",
"=. c #B45074",
"-. c #A64267",
";. c #9E677C",
":. c #C24B72",
">. c #C8567B",
",. c #BD6784",
"<. c #B17188",
"1. c #CC5E83",
"2. c #CE6184",
"3. c #D3688C",
"4. c #CD7794",
"5. c #C37491",
"6. c #D17C98",
"7. c #7A8183",
"8. c #83868A",
"9. c #9D858E",
"0. c #878E91",
"q. c #8C9496",
"w. c #919497",
"e. c #959699",
"r. c #959C9D",
"t. c #989A9D",
"y. c #988B93",
"u. c #9DA6A7",
"i. c #A3ABAC",
"p. c #A9ACAE",
"a. c #B2A4AB",
"s. c #ABB6B5",
"d. c #B3BABB",
"f. c #B1B7B8",
"g. c #C6879C",
"h. c #D2859D",
"j. c #D58BA4",
"k. c #C992A1",
"l. c #DB9BAE",
"z. c #D697AC",
"x. c #E08CA7",
"c. c #E798B3",
"v. c #C8A1AD",
"b. c #CEB3BC",
"n. c #D4B1BD",
"m. c #D8B0BE",
"M. c #CCABB7",
"N. c #E4A4BA",
"B. c #EDA4BD",
"V. c #BFBFC1",
"C. c #D8B8C4",
"Z. c #E9A8C0",
"A. c #ECBACC",
"S. c #F2B7CB",
"D. c #F4BACD",
"F. c #BEC9C8",
"G. c #C4C9C9",
"H. c #DCC4CB",
"J. c #CAD4D3",
"K. c #CBD6D4",
"L. c #D5D6D7",
"P. c #D5DADA",
"I. c #D9DFDE",
"U. c #E4C1CD",
"Y. c #E5C6D1",
"T. c #E7CBD5",
"R. c #E8CBD4",
"E. c #F7C3D4",
"W. c #FBCCDB",
"Q. c #E3DCDE",
"!. c #E5D2D8",
"~. c #F3D6DF",
"^. c #F9D1DF",
"/. c #FDD5E2",
"(. c #F2DBE3",
"). c #DBE3E2",
"_. c #E2E5E5",
"`. c #EDE6E9",
"'. c #EAECEC",
"]. c #E5E8E8",
"[. c #F8E8EE",
"{. c #FBECF1",
"}. c #FFEBF4",
"|. c #EFF8F5",
" X c #F1F3F3",
".X c #FCF5F9",
"XX c #F6FCFB",
"oX c #FFFEFE",
"OX c #FAF2F4",
/* pixels */
"                        = + O X X O + =                         ",
"                  > + X : e S K K D t > O + >                   ",
"              > O X y 7.G.'..X.X.XoX XK.r.D + O >               ",
"            > X 7 q. X[.N.,.-.|  .O.>.j.~.|.f.M X :             ",
"          = X H _.}.<.h 3 @ # + : $ 4 d ) :.U. X8.: +           ",
"        > . R oXn.n o O * = = ; = ; - * , s ` 4.XXp.+ +         ",
"      < X R oXy.+ O < > > > > > 6 > > > = - 6 ^ :..Xp.+ =       ",
"    ; & V .Xe.. : > + O O O O O O O O + + + : = l :.oX8.. >     ",
"    & 2 T.G.= : = w i u u u u u u u u u t t 6 & = ^ 6.XXN X     ",
"  < . ;..XN O < @ Z '.'.'.'.'.'.'.'.'.'.'.'.N o ; 2 ` R.f.O >   ",
"  = 0 ^.i.. > - k *.oXoXoXoXoXoXoXoXoXoXoXoXF.Y + - s >.XXS +   ",
"  + @..XJ X < - k $.XXoXoXoXH.v.M.b.OXoXoXoXoXt.X = , ) (.q.X   ",
"= % j.I.; : > - k $.XXoXoXoXl.' ' _ Q.oXoXoXoXw.X > * j c.J.: = ",
"* a S.d.X > > - k $.XXoXoXoXoXH 1 ` Q.oXoXoXoXt.X = * 5 2.'.r & ",
"* g W.r.. > = - k $.XXoXoXoXoXi.9.z. XoXoXoXz.U & > = 2 $..XN O ",
"& c /.0.. > > - k $.XXoXoXoXoXoXoXoXoXoXoXXXC o > > = # X..XF O ",
"& v ^.q.. > > - k $.XXoXoXoXXXXXXXXXoXoXoXXXF . > > = # X.oXD O ",
"& v E.u.X > > - k $.XXoXoXoXk...%.&.`.oXoXoXL.E + > = @ =.OXi O ",
"* j B.F.O = > - k $.oXoXoXoX/.A p ` Q.oXoXoXoXt.. > ; @ 4._.7 : ",
"* 9 3.].r O > - k $.XXoXoXoXoXT b +.Q.oXoXoXoXw.X > * 4 S.d.O > ",
"  2  .{.W . > - k $.XXoXoXoXoX'.`.[.oXoXoXoXoXw.X < O A .XW X   ",
"  = ~ N.P.+ = * k *.oXoXoXoXoXoXoXoXoXoXoXoXg.m = < o g.'.7 =   ",
"  - a +.XX! X - x O.b.n.C.n.n.m.n.n.n.n.n.m.B X < O V .X7.X >   ",
"    = ^ j.XXN . c ] ^ ^ ( ( ^ ( ( ( ( ( ( f * > O , Y.L.= :     ",
"    - 8 [ R.I.r X , > 6 , , 6 , , 6 > , , = > + . a..XS X 6     ",
"      - g } !.).M X : = 6 = = = = > > = ; > X 6 p.oXP X =       ",
"        - d } Y. XQ = X O = > > > > > + X X H P.{.U . >         ",
"          * f [ h. XP.Q y : . . . . O 7 P f..XC.i X >           ",
"            - 8 / o.l.{.].J.s.r.r.i.F._..XA.#.# O >             ",
"              - - 9 l { 2.c.S.W.W.D.Z.5.Z 3 O = <               ",
"                  ; - $ 5 s j c z f 4 @ + * >                   ",
"                        - - * & & * * ;                         "
};
