/* XPM */
static char *_0b41e9b2f4d44dca8552079a1a65e4c[] = {
/* columns rows colors chars-per-pixel */
"32 32 2 1 ",
"  c None",
". c #111111",
/* pixels */
"                                ",
"                                ",
"   .........................    ",
"   .........................    ",
"   .........................    ",
"   ...........................  ",
"   ...........................  ",
"   ...........................  ",
"   .........       ...........  ",
"   ..........      ...........  ",
"   ...........     ...........  ",
"   ...........     ...........  ",
"   ...........     ...........  ",
"   .........................    ",
"   .........................    ",
"   .........................    ",
"   .........................    ",
"   .........................    ",
"   .........................    ",
"   .........       ...........  ",
"   ..........      ...........  ",
"   ...........     ...........  ",
"   ...........     ...........  ",
"   ...........     ...........  ",
"   ...........................  ",
"   ...........................  ",
"   ...........................  ",
"   .........................    ",
"   .........................    ",
"   ........................     ",
"                                ",
"                                "
};
