/* XPM */
static char *result[] = {
/* columns rows colors chars-per-pixel */
"16 16 90 1 ",
"  c black",
". c #000100",
"X c #010101",
"o c #020202",
"O c #040404",
"+ c gray2",
"@ c #080000",
"# c #0A0000",
"$ c #0E0404",
"% c #160000",
"& c #12090C",
"* c #360000",
"= c #3C0000",
"- c #3E0000",
"; c gray20",
": c #3E3E3E",
"> c #460002",
", c #480000",
"< c #75092C",
"1 c #750A2C",
"2 c #790A2E",
"3 c #751330",
"4 c #682731",
"5 c #6A2B38",
"6 c #3F4442",
"7 c #444444",
"8 c #454646",
"9 c #434846",
"0 c #484848",
"q c #494B4B",
"w c #4F4A4A",
"e c #545051",
"r c #60605F",
"t c #556960",
"y c #5C6966",
"u c #606060",
"i c #696869",
"p c #7C7C7C",
"a c #8B0535",
"s c #841539",
"d c #868080",
"f c #B28B91",
"g c #BA8B97",
"h c #BD8D95",
"j c #A69294",
"k c #AEAEAE",
"l c #ACB1AF",
"z c gray69",
"x c #B1B1B1",
"c c #B6B6B6",
"v c gray73",
"b c #BBBBBB",
"n c #BCBCBC",
"m c gray74",
"M c #EF9FB4",
"N c #FF96B4",
"B c #EFA7B8",
"V c #F3AABB",
"C c #E3B2B7",
"Z c #FFADC6",
"A c #F1BFC5",
"S c #BBE4DB",
"D c #CAC4C8",
"F c #DEC9C6",
"G c #DEC9C8",
"H c #D5D6D6",
"J c #D8D8D8",
"K c #DADADA",
"L c #DADADB",
"P c gray86",
"I c #F3E2DF",
"U c #D5FFF6",
"Y c #E0E1E1",
"T c #E1E1E1",
"R c gray89",
"E c #FDE3E9",
"W c #FDEAEF",
"Q c #E4F6F2",
"! c #E9F8F7",
"~ c #FFF3F6",
"^ c #F9F7F7",
"/ c #FFF7FA",
"( c #FFF5FE",
") c #F1FAF8",
"_ c #F9F9F8",
"` c #FCFBFB",
"' c #FFF8FF",
"] c #FFFEFF",
"[ c white",
"{ c None",
/* pixels */
"{{{{{[PnbK[{{{{{",
"{{{[x0X   7k[{{{",
"{{[i        u[{{",
"{[i  O    +  u[{",
"{v %gYHQ!LRpo z{",
"[: ,Z[[BC[[[8 ;[",
"T  -M[`5*F[[e  J",
"m  -M[[UD/[f&  c",
"m  -M[^AI)[d   c",
"T  -M[_4*G[[q  J",
"[: =V[[Sj][[w ;[",
"{v >N~E'[W(h$ z{",
"{[t#a3<112s@ r[{",
"{{[y        u[{{",
"{{{[l9.   6k[{{{",
"{{{{{[PnbK[{{{{{"
};
