/* XPM */
static char *a907bfc8cd334521f32112d8040e63da[] = {
/* columns rows colors chars-per-pixel */
"128 128 2 1 ",
"  c None",
". c #111111",
/* pixels */
"                                                                                                                                ",
"                                                                                                                                ",
"                                                                                                                                ",
"                                                                                                                                ",
"                                                                                                                                ",
"                                                                                                                                ",
"                                                                                                                                ",
"                                                             .....                                                              ",
"                                                       ..................                                                       ",
"                                                  ............................                                                  ",
"                                               ..................................                                               ",
"                                            ........................................                                            ",
"                                         ..............................................                                         ",
"                                       ..................              ..................                                       ",
"                                     ..............                         ...............                                     ",
"                                   .............                                ............                                    ",
"                                  ...........                                      ...........                                  ",
"                                ...........                                          ..........                                 ",
"                               ..........                                              ..........                               ",
"                             ..........                                                  .........                              ",
"                            .........                                                      .........                            ",
"                           .........                                                        .........                           ",
"                          ........                                                           .........                          ",
"                         ........                                                              ........                         ",
"                        ........                                                                ........                        ",
"                       ........                                                                  ........                       ",
"                      .......                                                                     ........                      ",
"                     .......                                                                       ........                     ",
"                    .......                                                                         ........                    ",
"                   .......                                                                           .......                    ",
"                   ......                                                                             .......                   ",
"                  .......                                                                              .......                  ",
"                 .......                                                                                ......                  ",
"                 ......                                                                                  ......                 ",
"                ......                                                                                   .......                ",
"               ......                                                                                     ......                ",
"               ......                                                                                      ......               ",
"              ......                  ..................................................                   .......              ",
"             .......                  ..................................................                    ......              ",
"             ......                   ..................................................                     .....              ",
"             ......                   ..................................................                     ......             ",
"            ......                    ..................................................                      .....             ",
"            ......                    .......................................................                 ......            ",
"           ......                     ........................................................                ......            ",
"           ......                     ........................................................                 ......           ",
"           .....                      ........................................................                 ......           ",
"          ......                      ........................................................                  .....           ",
"          ......                      ........................................................                  ......          ",
"          .....                       ...................              .......................                  ......          ",
"         ......                       ...................              .......................                   .....          ",
"         ......                       ...................              .......................                   .....          ",
"         .....                        ...................              .......................                   ......         ",
"         .....                        ......................           .......................                    .....         ",
"         .....                        ......................           .......................                    .....         ",
"         .....                        ......................           .......................                    .....         ",
"        .....                         ......................           .......................                    .....         ",
"        .....                         ......................           .......................                    ......        ",
"        .....                         ......................           .......................                    ......        ",
"        .....                         .......................          ......................                     ......        ",
"        .....                         ..................................................                           .....        ",
"        .....                         ..................................................                           .....        ",
"       ......                         ..................................................                           .....        ",
"       ......                         ..................................................                           .....        ",
"       ......                         ..................................................                           .....        ",
"       ......                         ..................................................                           .....        ",
"       ......                         ..................................................                           .....        ",
"       ......                         ..................................................                           .....        ",
"        .....                         ..................................................                           .....        ",
"        .....                         ..................................................                           .....        ",
"        .....                         ..................................................                          ......        ",
"        .....                         ...................              .......................                    ......        ",
"        .....                         ...................              .......................                    ......        ",
"        .....                         ...................              .......................                    .....         ",
"         .....                        ...................              .......................                    .....         ",
"         .....                        ......................           .......................                    .....         ",
"         .....                        ......................           .......................                    .....         ",
"         .....                        ......................           .......................                   ......         ",
"         ......                       ......................           .......................                   .....          ",
"         ......                       ......................           .......................                   .....          ",
"          .....                       ......................           .......................                  ......          ",
"          ......                      ......................           .......................                  ......          ",
"          ......                      ........................................................                  .....           ",
"           .....                      ........................................................                 ......           ",
"           ......                     ........................................................                 ......           ",
"           ......                     ........................................................                ......            ",
"            ......                    ........................................................                ......            ",
"            ......                    ..................................................                     ......             ",
"             ......                   ..................................................                     ......             ",
"             ......                   ..................................................                    ......              ",
"              ......                  ..................................................                    ......              ",
"              ......                  ..................................................                   .......              ",
"               ......                 ..................................................                   ......               ",
"               .......                                                                                    ......                ",
"                ......                                                                                   .......                ",
"                 ......                                                                                 .......                 ",
"                 .......                                                                                ......                  ",
"                  .......                                                                              .......                  ",
"                   .......                                                                            .......                   ",
"                   .......                                                                           .......                    ",
"                    .......                                                                         ........                    ",
"                     .......                                                                       ........                     ",
"                      .......                                                                     ........                      ",
"                       ........                                                                  ........                       ",
"                        ........                                                                ........                        ",
"                         ........                                                              ........                         ",
"                          ........                                                           .........                          ",
"                           .........                                                        .........                           ",
"                            .........                                                     ..........                            ",
"                             ..........                                                 ..........                              ",
"                               ..........                                              ..........                               ",
"                                ...........                                          ..........                                 ",
"                                  ............                                    ............                                  ",
"                                   .............                               .............                                    ",
"                                     ...............                        ...............                                     ",
"                                       ..................             ..................                                        ",
"                                         .............................................                                          ",
"                                            ........................................                                            ",
"                                               ..................................                                               ",
"                                                  ............................                                                  ",
"                                                       ..................                                                       ",
"                                                              ....                                                              ",
"                                                                                                                                ",
"                                                                                                                                ",
"                                                                                                                                ",
"                                                                                                                                ",
"                                                                                                                                ",
"                                                                                                                                ",
"                                                                                                                                "
};
