/* XPM */
static char *result[] = {
/* columns rows colors chars-per-pixel */
"64 64 149 2 ",
"   c #000000",
".  c #0F0003",
"X  c #0B0B0B",
"o  c #1E0005",
"O  c #0B1912",
"+  c #141414",
"@  c #1E1E1E",
"#  c #330000",
"$  c #3C0000",
"%  c #250012",
"&  c #300010",
"*  c #04281B",
"=  c #182622",
"-  c #242424",
";  c #2C2C2C",
":  c #332C2B",
">  c #333333",
",  c gray23",
"<  c #410000",
"1  c #4D0006",
"2  c #420009",
"3  c #4B0009",
"4  c #540003",
"5  c #5A0004",
"6  c #570009",
"7  c #5D0009",
"8  c #4D0313",
"9  c #420018",
"0  c #4C0D1E",
"q  c #500617",
"w  c #560A19",
"e  c #521019",
"r  c #6C0002",
"t  c #6E000C",
"y  c #640114",
"u  c #74001B",
"i  c #79001E",
"p  c #5A0028",
"a  c #451423",
"s  c #6A0020",
"d  c #610029",
"f  c #6B002D",
"g  c #790020",
"h  c #73002E",
"j  c #7A002B",
"k  c #63142B",
"l  c #6F0033",
"z  c #7D0033",
"x  c #7D183D",
"c  c #444444",
"v  c #4B4B4B",
"b  c #545454",
"n  c #5C5C5C",
"m  c #764D4F",
"M  c #7E4B51",
"N  c #6D575E",
"B  c #656565",
"V  c #656969",
"C  c DimGray",
"Z  c #717171",
"A  c #7C7C7C",
"S  c #89001B",
"D  c #82002D",
"F  c #85092E",
"G  c #8A0039",
"H  c #91153D",
"J  c #CA0036",
"K  c #920440",
"L  c #B9024B",
"P  c #8F2549",
"I  c #C4004F",
"U  c #DA004D",
"Y  c #C71145",
"T  c #D90057",
"R  c #D70259",
"E  c #DE005D",
"W  c #FF004F",
"Q  c #E9035D",
"!  c #E1085E",
"~  c #E2015D",
"^  c #FE005C",
"/  c #CE325B",
"(  c #EB0262",
")  c #F20161",
"_  c #FF036B",
"`  c #FA0165",
"'  c #EF1365",
"]  c #FD186A",
"[  c #FF0377",
"{  c #845459",
"}  c #876065",
"|  c #916464",
" . c #A2697C",
".. c #A3727F",
"X. c #FF0181",
"o. c #FF6899",
"O. c #FF719A",
"+. c #868686",
"@. c #8D8D8D",
"#. c #939393",
"$. c #9C9C9C",
"%. c #AC8E8F",
"&. c #AC838F",
"*. c #AE8491",
"=. c #B58F94",
"-. c #B69195",
";. c #B6949B",
":. c #B29D9B",
">. c #BB9DA1",
",. c #A2A2A2",
"<. c #ACACAC",
"1. c #BEA3A5",
"2. c #B3B3B3",
"3. c #B8B7B8",
"4. c #BCBCBC",
"5. c #FF85A8",
"6. c #E59DB5",
"7. c #C2A6AA",
"8. c #D0A1A6",
"9. c #CAABB1",
"0. c #CEB6BA",
"q. c #CAB2B5",
"w. c #E4B5CA",
"e. c #C4C3C4",
"r. c #CBCCCB",
"t. c #D1C4C2",
"y. c #D6D0CC",
"u. c gray84",
"i. c #DFD2D1",
"p. c #DBDBDB",
"a. c #EFCBD0",
"s. c #F3CFDD",
"d. c #E2D3D3",
"f. c #E7DEDE",
"g. c #F2DCDD",
"h. c #EAE0DD",
"j. c #E3E3E3",
"k. c #EBEAEA",
"l. c #F2E3E9",
"z. c #FFE2F0",
"x. c #F6EFF2",
"c. c #F8EFF4",
"v. c #EFF7F3",
"b. c #F3F3F3",
"n. c #F8F6F7",
"m. c #F3F9F7",
"M. c #FEF6FB",
"N. c #FFFFFF",
"B. c None",
/* pixels */
"B.B.B.B.B.B.B.B.B.B.B.B.B.B.B.B.B.B.B.B.B.B.B.B.B.B.N.N.N.N.N.N.N.N.N.N.N.N.B.B.B.B.B.B.B.B.B.B.B.B.B.B.B.B.B.B.B.B.B.B.B.B.B.B.",
"B.B.B.B.B.B.B.B.B.B.B.B.B.B.B.B.B.B.B.B.B.B.N.N.N.N.N.N.N.N.N.N.N.N.N.N.N.N.N.N.N.N.B.B.B.B.B.B.B.B.B.B.B.B.B.B.B.B.B.B.B.B.B.B.",
"B.B.B.B.B.B.B.B.B.B.B.B.B.B.B.B.B.B.B.B.N.N.N.N.N.N.N.N.N.N.N.N.N.N.N.N.N.N.N.N.N.N.N.N.B.B.B.B.B.B.B.B.B.B.B.B.B.B.B.B.B.B.B.B.",
"B.B.B.B.B.B.B.B.B.B.B.B.B.B.B.B.B.B.N.N.N.N.N.N.n.r.$.Z n c > ; ; > c b Z #.e.b.N.N.N.N.N.N.N.B.B.B.B.B.B.B.B.B.B.B.B.B.B.B.B.B.",
"B.B.B.B.B.B.B.B.B.B.B.B.B.B.B.B.N.N.N.N.N.N.4.C -                             + n <.N.N.N.N.N.N.B.B.B.B.B.B.B.B.B.B.B.B.B.B.B.B.",
"B.B.B.B.B.B.B.B.B.B.B.B.B.B.N.N.N.N.N.b.@.;                                         @ A j.N.N.N.N.N.B.B.B.B.B.B.B.B.B.B.B.B.B.B.",
"B.B.B.B.B.B.B.B.B.B.B.B.B.N.N.N.N.n.+.+                                                 X Z k.N.N.N.N.B.B.B.B.B.B.B.B.B.B.B.B.B.",
"B.B.B.B.B.B.B.B.B.B.B.N.N.N.N.N.2.-                                                         + #.N.N.N.N.N.B.B.B.B.B.B.B.B.B.B.B.",
"B.B.B.B.B.B.B.B.B.B.N.N.N.N.b.n                                                                 c j.N.N.N.N.B.B.B.B.B.B.B.B.B.B.",
"B.B.B.B.B.B.B.B.B.N.N.N.N.u.-                                                                     + 4.N.N.N.N.B.B.B.B.B.B.B.B.B.",
"B.B.B.B.B.B.B.B.N.N.N.N.e.X                                                                           $.N.N.N.N.B.B.B.B.B.B.B.B.",
"B.B.B.B.B.B.B.B.N.N.N.3.                                                                                #.N.N.N.N.B.B.B.B.B.B.B.",
"B.B.B.B.B.B.B.N.N.N.e.                                                                                    $.N.N.N.B.B.B.B.B.B.B.",
"B.B.B.B.B.B.N.N.N.j.X                                                                                       4.N.N.N.B.B.B.B.B.B.",
"B.B.B.B.B.N.N.N.n.-                                                                                         X k.N.N.N.B.B.B.B.B.",
"B.B.B.B.B.N.N.N.n                                                                                             > N.N.N.B.B.B.B.B.",
"B.B.B.B.N.N.N.4.                  N ,.$.$.$.$.$.$.$.$.$.$.$.$.$.$.$.$.$.$.$.$.$.$.$.$.$.$.+.                    #.N.N.N.B.B.B.B.",
"B.B.B.B.N.N.N.@                 2 6.N.N.N.N.N.N.N.N.N.N.N.N.N.N.N.N.N.N.N.N.N.N.N.N.N.N.N.b.                      k.N.N.N.B.B.B.",
"B.B.B.N.N.N.#.                K S *.N.N.N.N.N.N.N.N.N.N.N.N.N.N.N.N.N.N.N.N.N.N.N.N.N.N.N.e.                      C N.N.N.B.B.B.",
"B.B.B.N.N.n.+               p [ 7 *.N.N.N.N.N.N.N.N.N.N.N.N.N.N.N.N.N.N.N.N.N.N.N.N.N.N.N.p.b n b                   j.N.N.N.B.B.",
"B.B.N.N.N.$.                f _ 6 *.N.N.N.N.N.N.N.N.N.N.N.N.N.N.N.N.N.N.N.N.N.N.N.N.N.N.N.N.N.N.N.+                 Z N.N.N.B.B.",
"B.B.N.N.N.;                 d _ 7 *.N.N.N.N.N.N.N.N.N.N.N.N.N.N.N.N.N.N.N.N.N.N.N.N.N.N.N.N.N.N.k.X                 X b.N.N.B.B.",
"B.B.N.N.r.                  d _ 7 *.N.N.N.N.N.N.N.N.N.N.q.1.9.9.9.9.9.7.f.N.N.N.N.N.N.N.N.N.N.N.k.X                   ,.N.N.N.B.",
"B.N.N.N.Z                   d _ 7 *.N.N.N.N.N.N.N.N.N.M.3 # 3 3 3 3 3 $ -.N.N.N.N.N.N.N.N.N.N.N.k.X                   v N.N.N.B.",
"B.N.N.N.-                   d _ 7 *.N.N.N.N.N.N.N.N.N.N./ Y ( ( ( ~ L 4 >.N.N.N.N.N.N.N.N.N.N.N.k.X                   X k.N.N.B.",
"B.N.N.p.                    d _ 7 *.N.N.N.N.N.N.N.N.N.N.N.M.P j z I _ 1 >.N.N.N.N.N.N.N.N.N.N.N.k.X                     3.N.N.B.",
"B.N.N.<.                    d _ 7 *.N.N.N.N.N.N.N.N.N.N.N.N.*     p [ 4 >.N.N.N.N.N.N.N.N.N.N.N.j.X                     +.N.N.N.",
"N.N.N.+.                    d _ 7 *.N.N.N.N.N.N.N.N.N.N.N.N.+     s ^ < ;.N.N.N.N.N.N.N.N.N.N.N.m.X                     n N.N.N.",
"N.N.N.B                     d _ 7 *.N.N.N.N.N.N.N.N.N.N.N.N.> X O x ] w 1.N.N.N.N.N.N.N.N.N.b.M.l.X                     c N.N.N.",
"N.N.N.b                     d _ 7 *.N.N.N.N.N.N.N.N.N.N.N.N.b.b.m.b.M.c.M.N.N.N.N.N.N.N.N.y.e H a                       > N.N.N.",
"N.N.N.c                     d _ 7 *.N.N.N.N.N.N.N.N.N.N.N.N.N.N.N.N.N.N.N.N.N.N.N.N.N.N.N.a.J 8                         - N.N.N.",
"N.N.N.,                     d _ 7 *.N.N.N.N.N.N.N.N.N.N.N.N.N.N.N.N.N.N.N.N.N.N.N.N.N.N.N.s.D                           - N.N.N.",
"N.N.N.,                     d _ 7 *.N.N.N.N.N.N.N.N.N.N.N.N.N.N.N.N.N.N.N.N.N.N.N.N.N.N.N.r.                            - n.N.N.",
"N.N.N.c                     d _ 7 &.N.N.N.N.N.N.N.N.N.N.N.N.N.N.N.N.N.N.N.N.N.N.N.N.N.N.N.r.                            - N.N.N.",
"N.N.N.b                     d _ 7 *.N.N.N.N.N.N.N.N.N.N.N.N.N.N.N.N.N.N.N.N.N.N.N.N.N.N.N.r.                            > N.N.N.",
"N.N.N.B                     d _ 7 *.N.N.N.N.N.N.N.N.N.M.} m { { { { { M 0.N.N.N.N.N.N.N.N.k.<.2.<.X                     c N.N.N.",
"N.N.N.+.                    d _ 7 *.N.N.N.N.N.N.N.N.N.M.r 4 i i i u y $ =.N.N.N.N.N.N.N.N.N.N.N.N.X                     n N.N.N.",
"B.N.N.<.                    d _ 7 *.N.N.N.N.N.N.N.N.N.N.5.O.' Q Q ` ) 6 >.N.N.N.N.N.N.N.N.N.N.N.k.X                     +.N.N.N.",
"B.N.N.p.                    d _ 7 *.N.N.N.N.N.N.N.N.N.N.N.N.: . . h _ 6 :.N.N.N.N.N.N.N.N.N.N.N.j.X                     3.N.N.B.",
"B.N.N.N.-                   d _ 7 *.N.N.N.N.N.N.N.N.N.N.N.N.=     p [ 7 >.N.N.N.N.N.N.N.N.N.N.N.k.X                   X k.N.N.B.",
"B.N.N.N.Z                   d _ 7 *.N.N.N.N.N.N.N.N.N.N.N.N.      3 W $ %.N.N.N.N.N.N.N.N.N.N.N.k.X                   v N.N.N.B.",
"B.B.N.N.r.                  d _ 7 *.N.N.N.N.N.N.N.N.N.N.N.N.A B V  .o.| t.N.N.N.N.N.N.N.N.N.N.N.k.X                   ,.N.N.N.B.",
"B.B.N.N.N.;                 d _ 7 *.N.N.N.N.N.N.N.N.N.N.N.N.N.N.N.N.N.N.N.N.N.N.N.N.N.N.N.N.N.N.j.X                 X b.N.N.B.B.",
"B.B.N.N.N.$.                d _ 7 *.N.N.N.N.N.N.N.N.N.N.N.N.N.N.N.N.N.N.N.N.N.N.N.N.N.N.N.N.N.N.N.X                 Z N.N.N.B.B.",
"B.B.B.N.N.n.+               d _ 7 *.N.N.N.N.N.N.N.N.N.N.N.N.N.N.N.N.N.N.N.N.N.N.N.N.N.N.N.k.:.8.>.X                 j.N.N.N.B.B.",
"B.B.B.N.N.N.#.              d _ 7 *.N.N.N.N.N.N.N.N.N.N.N.N.N.N.N.N.N.N.N.N.N.N.N.N.N.N.N.t.4 t .                 B N.N.N.B.B.B.",
"B.B.B.B.N.N.N.@             d _ 6 ;.N.N.N.N.N.N.N.N.N.N.N.N.N.N.N.N.N.N.N.N.N.N.N.N.N.N.N.z.U %                   b.N.N.N.B.B.B.",
"B.B.B.B.N.N.N.4.            d _ y ..h.d.d.d.d.d.d.d.d.d.d.d.d.d.d.d.d.d.d.d.d.d.d.d.d.d.g.w.&                   #.N.N.N.B.B.B.B.",
"B.B.B.B.B.N.N.N.n           d _ k a e 8 q q q q q q q q q q q q q q q q q q q q q q 8 w F o                   > N.N.N.B.B.B.B.B.",
"B.B.B.B.B.N.N.N.n.-         f X.( R T T T T T T T T T T T T T T T T T T T T T T T T E ( 9                   X j.N.N.N.B.B.B.B.B.",
"B.B.B.B.B.B.N.N.N.j.X       % l z D z z z z z z z z z z z z z z z z z z z z z z z z G d                     4.N.N.N.B.B.B.B.B.B.",
"B.B.B.B.B.B.B.N.N.N.e.                                                                                    ,.N.N.N.B.B.B.B.B.B.B.",
"B.B.B.B.B.B.B.B.N.N.N.4.                                                                                #.N.N.N.N.B.B.B.B.B.B.B.",
"B.B.B.B.B.B.B.B.N.N.N.N.e.X                                                                           $.N.N.N.N.B.B.B.B.B.B.B.B.",
"B.B.B.B.B.B.B.B.B.N.N.N.N.u.-                                                                     + 4.N.N.N.N.B.B.B.B.B.B.B.B.B.",
"B.B.B.B.B.B.B.B.B.B.N.N.N.N.b.n                                                                 c j.N.N.N.N.B.B.B.B.B.B.B.B.B.B.",
"B.B.B.B.B.B.B.B.B.B.B.N.N.N.N.N.<.-                                                         + #.N.N.N.N.N.B.B.B.B.B.B.B.B.B.B.B.",
"B.B.B.B.B.B.B.B.B.B.B.B.B.N.N.N.N.n.+.@                                                 X Z k.N.N.N.N.B.B.B.B.B.B.B.B.B.B.B.B.B.",
"B.B.B.B.B.B.B.B.B.B.B.B.B.B.N.N.N.N.N.b.@.;                                         @ A j.N.N.N.N.N.B.B.B.B.B.B.B.B.B.B.B.B.B.B.",
"B.B.B.B.B.B.B.B.B.B.B.B.B.B.B.B.N.N.N.N.N.N.4.B @                             + n <.N.N.N.N.N.N.B.B.B.B.B.B.B.B.B.B.B.B.B.B.B.B.",
"B.B.B.B.B.B.B.B.B.B.B.B.B.B.B.B.B.B.N.N.N.N.N.N.N.r.$.Z n c > ; ; > c b Z #.e.b.N.N.N.N.N.N.N.B.B.B.B.B.B.B.B.B.B.B.B.B.B.B.B.B.",
"B.B.B.B.B.B.B.B.B.B.B.B.B.B.B.B.B.B.B.B.N.N.N.N.N.N.N.N.N.N.N.N.N.N.N.N.N.N.N.N.N.N.N.N.B.B.B.B.B.B.B.B.B.B.B.B.B.B.B.B.B.B.B.B.",
"B.B.B.B.B.B.B.B.B.B.B.B.B.B.B.B.B.B.B.B.B.B.N.N.N.N.N.N.N.N.N.N.N.N.N.N.N.N.N.N.N.N.B.B.B.B.B.B.B.B.B.B.B.B.B.B.B.B.B.B.B.B.B.B.",
"B.B.B.B.B.B.B.B.B.B.B.B.B.B.B.B.B.B.B.B.B.B.B.B.B.B.N.N.N.N.N.N.N.N.N.N.N.N.B.B.B.B.B.B.B.B.B.B.B.B.B.B.B.B.B.B.B.B.B.B.B.B.B.B."
};
