/* XPM */
static char *_1ef593cacca4e40a439388a7cc86902FQS1F8jRY6ZUjQy0[] = {
/* columns rows colors chars-per-pixel */
"64 64 208 2 ",
"   c None",
".  c #01060E",
"X  c #02080F",
"o  c #000003",
"O  c #0D0712",
"+  c #050B12",
"@  c #090E16",
"#  c #1B0918",
"$  c #041115",
"%  c #0B1017",
"&  c #04171A",
"*  c #0D151B",
"=  c #001818",
"-  c #11161D",
";  c #19151F",
":  c #13181F",
">  c #25081A",
",  c #36051D",
"<  c #1B1520",
"1  c #161B22",
"2  c #1A1E25",
"3  c #340D23",
"4  c #241422",
"5  c #2A1625",
"6  c #331326",
"7  c #3B1229",
"8  c #371D2D",
"9  c #1E2329",
"0  c #1B2027",
"q  c #21262C",
"w  c #25292E",
"e  c #272B31",
"r  c #2A2E35",
"t  c #2E3339",
"y  c #283236",
"u  c #31363C",
"i  c #35393F",
"p  c #73001F",
"a  c #480624",
"s  c #560327",
"d  c #49132D",
"f  c #551733",
"g  c #6D032B",
"h  c #62052D",
"j  c #77002C",
"k  c #6A0D35",
"l  c #670E33",
"z  c #760C35",
"x  c #761437",
"c  c #7B1539",
"v  c #641837",
"b  c #363B41",
"n  c #393D43",
"m  c #4A3C47",
"M  c #7E2343",
"N  c #762C4B",
"B  c #7B3853",
"V  c #3D4147",
"C  c #43474C",
"Z  c #45494F",
"A  c #494D52",
"S  c #474B50",
"D  c #515459",
"F  c #56595E",
"G  c #4E5257",
"H  c #5D6166",
"J  c #62656A",
"K  c #65686D",
"L  c #6A6E73",
"P  c #6E7176",
"I  c #75787C",
"U  c #860028",
"Y  c #8C0134",
"T  c #830B3B",
"R  c #870537",
"E  c #920032",
"W  c #990033",
"Q  c #9D043B",
"!  c #95083B",
"~  c #85143C",
"^  c #910936",
"/  c #A4003A",
"(  c #AC003C",
")  c #A40035",
"_  c #B3003D",
"`  c #BB003E",
"'  c #C3003F",
"]  c #970A42",
"[  c #881D43",
"{  c #9F1546",
"}  c #AA0846",
"|  c #A80643",
" . c #B50041",
".. c #BB0040",
"X. c #BC064B",
"o. c #B10749",
"O. c #AD154C",
"+. c #892A4C",
"@. c #8E3756",
"#. c #A42754",
"$. c #B72258",
"%. c #AA3961",
"&. c #B33662",
"*. c #B82D60",
"=. c #C40042",
"-. c #CC0043",
";. c #C7044C",
":. c #D40049",
">. c #DB004B",
",. c #D10044",
"<. c #DB0352",
"1. c #D60251",
"2. c #E4004E",
"3. c #E40354",
"4. c #EB0154",
"5. c #EE0258",
"6. c #F10159",
"7. c #C13E6D",
"8. c #ED2268",
"9. c #88425B",
"0. c #8D4961",
"q. c #964A65",
"w. c #96556C",
"e. c #A74C6C",
"r. c #B9416B",
"t. c #BC4E75",
"y. c #A65B77",
"u. c #B45577",
"i. c #AA4F71",
"p. c #9A6275",
"a. c #9F677B",
"s. c #896D7C",
"d. c #A3677C",
"f. c #B3627E",
"g. c #C44E78",
"h. c #7D7F83",
"j. c #A66D81",
"k. c #B66581",
"l. c #AD7A8C",
"z. c #A97386",
"x. c #B47A8E",
"c. c #B1748A",
"v. c #E85C8D",
"b. c #C6698A",
"n. c #C67893",
"m. c #D07494",
"M. c #EA6897",
"N. c #7F8185",
"B. c #838589",
"V. c #86898D",
"C. c #949699",
"Z. c #949699",
"A. c #938B92",
"S. c #AD8291",
"D. c #B28494",
"F. c #B6919E",
"G. c #9C9EA1",
"H. c #BC95A2",
"J. c #B98FA0",
"K. c #9AA1A3",
"L. c #A5A7A9",
"P. c #ACAEB0",
"I. c #B6B7B9",
"U. c #CF809C",
"Y. c #D68AA5",
"T. c #C49BA9",
"R. c #C894A6",
"E. c #D290A7",
"W. c #FF9DBE",
"Q. c #C8A8B3",
"!. c #D6A8B9",
"~. c #CAB2BB",
"^. c #D0B4BE",
"/. c #E3A8BC",
"(. c #BDBFC1",
"). c #D3BCC4",
"_. c #DCBCC8",
"`. c #CEBAC1",
"'. c #E6B9C7",
"]. c #F0A9C1",
"[. c #BFC1C2",
"{. c #C7C8CA",
"}. c #DBC7CE",
"|. c #DCCBD1",
" X c #D1D2D3",
".X c #DBD7D9",
"XX c #CFD0D1",
"oX c #E7C1CE",
"OX c #EACAD4",
"+X c #E9DADF",
"@X c #E6D7DC",
"#X c #F3CEDB",
"$X c #DFDFE0",
"%X c #EADDE1",
"&X c #F9DBE5",
"*X c #DFE0E1",
"=X c #E2E3E4",
"-X c #EBE1E5",
";X c #EDE6E8",
":X c #EAEAEB",
">X c #F2EBED",
",X c #FAEAEF",
"<X c #FFE9F1",
"1X c #F4F4F4",
"2X c #FCF6F8",
"3X c #FFFFFF",
"4X c #F8F6F7",
"5X c #EFF0F0",
/* pixels */
"                                                      - - - - - - - - - -                                                       ",
"                                            - - - - - - - * - - - - * 1 - - - - - -                                             ",
"                                        - - - - - - * @ + + + + X X X + % % - - - - - -                                         ",
"                                    - - - - - % X + : r C H I N.B.N.P F V q % X @ % - - - -                                     ",
"                                - - - - % X + e K L. X1X3X3X3X3X3X3X3X3X3X:X{.C.G 2 X @ * - - -                                 ",
"                            - - - - - X : F I.5X3X3X3X3X3X3X3X3X3X3X3X3X3X3X3X3X3X=XZ.V + @ - * - -                             ",
"                          - - - - + % K  X3X3X3X3X1X}.R.n.u.r.&.%.%.e.f.D.Q.@X4X3X3X3X3XI.C + % - - -                           ",
"                        - - - % + A {.3X3X3X4X_.b.$.( / W Y Y Y ! / _ =.=...| @.l.|.3X3X3X3XK.e X - - - -                       ",
"                    - - - - + 1 C.3X3X2X2XY.&.R s 3 < - * & & & & & - < 7 k o.:.=.] w.`.3X3X3X:XK + % * - -                     ",
"                  - - - - + t XX3X3X3X/.#.s > * $ * * - * - * - * - - - & & $ 5 z 1.:.E q.|.3X3X3XG.- @ - - -                   ",
"                - - - - X A :X3X3X&Xi.a - & * - 1 - - - 1 * - - - - - - - - - * = * l 1.-.R l.2X3X3X{.2 @ - - -                 ",
"                - - - X D 1X3X3X_.v O & - - - - - - - - - - - - - - - - - - - - 1 * & 1 [ 4./ 9.%X3X3X Xq @ - - -               ",
"              - - - X D 4X3X3XJ.> @ - - - - - - - - - - - - - - - - - - - - - - * - - * & 7 1.=.M }.3X3X X9 @ 1 -               ",
"            - - - X m 1X3X3XA.O $ - - - - - - - - - - - - - - - - - - - - - - - - - - - - & < X.>.c ).3X3X[.% % - -             ",
"          - - - @ 8 +X3X3XA.. - - - - - - - - - - - - - - - * 1 - - - - - - - - - - - - - - * * | >.c |.3X3XZ.X - - -           ",
"          - - * # !.3X3XP.+ % - - - - - - - - - - - - - - - - * - - - - - - - - - - - - - - - * & | >.+.-X3X3XH X - -           ",
"        - - * O y.3X3X.X1 $ - - - - - % % @ @ @ @ @ @ $ % % + @ @ @ @ @ @ @ @ @ @ @ @ % % - - - * * X.=.0.3X3X=Xq % - -         ",
"        - - $ v &X3X2XC + 1 - - - - * q n b b b b b b b b b b b b b b b b b b b b b b b q - - - - * < 3.W D.3X3XK.X - - -       ",
"      - - * > m.3X3XZ.X * - - - - & # x.2X3X3X2X3X4X2X3X3X3X4X3X3X4X3X4X3X4X3X2X3X4X3X2XL + - - - - = d 5.~ @X3X2Xn + - -       ",
"      - * % +.<X3X:Xq % - - - - * 7 j x.3X3X3X3X3X3X3X3X3X3X3X3X3X3X3X3X3X3X3X3X3X3X3X3XK o + * - - - = ] -.w.3X3XP.+ - -       ",
"    - - * , m.3X3XV.X - - - - - - 1.W l.3X3X3X3X3X3X3X3X3X3X3X3X3X3X3X3X3X3X3X3X3X3X3X3XZ.A D 9 * - - * < <.^ |.3X2Xu @ - -     ",
"    - - * T #X3X:Xw @ - - - - * < 4.Y l.3X3X3X3X3X3X3X3X3X3X3X3X3X3X3X3X3X3X3X3X3X3X3X3X3X3X3Xb % - - - & z -.p.3X3XV.X - -     ",
"  1 - * , r.3X3XK.+ - - - - - * < 3.E l.3X3X3X3X3X3X3X3X3X3X3X3X3X3X3X3X3X3X3X3X3X3X3X3X3X3X3Xb @ - - - * : 1.] -X3X.X* * - -   ",
"  * - = g Y.3X3XA @ - - - - - - < 3.E l.3X3X3X3X3X3X3X3X%Xa.d.d.d.d.d.j.>X3X3X3X3X3X3X3X3X3X2Xb @ - - - 1 & R =.F.3X3XC @ - -   ",
"  - - - Q OX3X*X1 * - - - - - * < 3.E l.3X3X3X3X3X3X3X3X'.U E W W W U g +X3X3X3X3X3X3X3X3X3X3Xb @ - - - - & 6 >.q.3X3XB.X - -   ",
"  - * 3 $.1X3XL.+ * - - - - - * < 3.E l.3X3X3X3X3X3X3X3X<X].v.-.;.<.2.x +X3X3X3X3X3X3X3X3X3X4Xb @ - - - - 1 * X.{ -X3XI.+ - -   ",
"  - & h t.3X3XI X - - - - - - - < 3.E l.3X3X3X3X3X3X3X3X3X3XK.X = l 3.x %X3X3X3X3X3X3X3X3X3X2Xb @ - - - - - & z _ ).3X$X2 % - - ",
"- * $ R b.3X3XG + - - - - - - * < 3.E S.3X3X3X3X3X3X3X3X3X3XC.o $ h 4.k +X3X3X3X3X3X3X3X3X3X3Xb @ - - - - - * d =.H.3X1Xt % - - ",
"- - - W E.3X2Xu @ - - - - - - * < 3.E l.3X3X3X3X3X3X3X3X3X3XL.w y B 8.+.-X3X3X3X3X3X3X3X,X-X%Xu % - - - - - * 5 =.x.3X3XC @ - * ",
"- * < ( Q.3X1Xe % - - - - - - * < 3.E l.3X3X3X3X3X3X3X3X3X3X3X1X2X4X4X2X3X3X3X3X3X3X3X3Xz.z d * * - - - - - * 1 ..k.3X3XF + - - ",
"- * 5  .^.3X:X9 % - - - - - - - < 3.Y l.3X3X3X3X3X3X3X3X3X3X3X3X3X3X3X3X3X3X3X3X3X3X3X3XM.g $ 1 - - - - - - - - _ u.3X3XH + - - ",
"- * 6  .^.3X:X9 % 1 - - - - - * < 3.E l.3X3X3X3X3X3X3X3X3X3X3X3X3X3X3X3X3X3X3X3X3X3X3X3Xs.X * - - - - - - - - * ( i.3X3XJ + - - ",
"* * 6  .~.3X:X9 * - - - - - - * < 3.E l.3X3X3X3X3X3X3X3X3X3X3X3X3X3X3X3X3X3X3X3X3X3X3X3XL + - - - - - - - - - & / u.3X3XH + - - ",
"- * 7 ` Q.3X1Xe % - - - - - - * < 3.E l.3X3X3X3X3X3X3X3X3X3X3X3X3X3X3X3X3X3X3X3X3X3X3X3XJ o X % - - - - - - - * / k.3X3XF + - - ",
"- * 6 =.H.3X2Xi % - - - - - - * < 3.E l.3X3X3X3X3X3X3X3X-Xz.z.z.z.l.z.x.>X3X3X3X3X3X3X3X(.C.C.e % - - - - - * * / n.3X3XC @ - - ",
"- * 4 =.c.3X3XA @ - - - - - 1 * < 3.E l.3X3X3X3X3X3X3X3XoXU U E E E U g +X3X3X3X3X3X3X3X3X3X3Xi % - - - - - - - ( R.3X2Xu % - - ",
"- * < ..e.3X3XP X - - - - - - * < 3.E l.3X3X3X3X3X3X3X3X<XW.v.=.;.2.3.x %X3X3X3X3X3X3X3X3X3X4Xb @ - - - - - * < ( ).3X=X2 % - - ",
"  - * o.#.4X3XK.X - - - - - - * < 3.E l.3X3X3X3X3X3X3X3X3X3XK.. $ f 4.x %X3X3X3X3X3X3X3X3X3X3Xb @ - - - - - * 6 O.-X3X(.@ * - - ",
"  - = ] | |.3X.X: % - - - - - - < 3.E l.3X3X3X3X3X3X3X3X3X3XC.. $ s 4.x +X3X3X3X3X3X3X3X3X3X3Xb @ - - - - - & s 7.3X3XV.+ - -   ",
"  - & k =.H.3X3XC @ - - - - - * < 3.E l.3X3X3X3X3X3X3X3X3X3XL.9 y N 8.+.%X3X3X3X3X3X3X3X3X3X4Xb % - - - - - & g Y.3X3XS @ - -   ",
"  - * 6 :.q.3X3XZ.X - - - - - * < 3.E l.3X3X3X3X3X3X3X3X3X3X2X4X1X1X2X4X3X3X3X3X3X3X3X3X3X3X2Xb @ - - - - - # ] %X3X$X1 % - -   ",
"  - * * ;.! +X3X:X9 % - - - - - < 3.E l.3X3X3X3X3X3X3X3X3X3X3X3X3X3X3X3X3X3X3X3X3X3X3X3X3X3X3Xb @ - - - - & , b.3X3XC.X - - -   ",
"    - = z ' S.3X3XI X - - - - * < 3.Y l.3X3X3X3X3X3X3X3X3X3X3X3X3X3X3X3X3X3X3X3X3X3X3X3X}.T.T.e % - - - - $ j oX3X3Xn @ - -     ",
"    - * 6 2.+.1X3X=X0 % - - - * < 3.E S.3X3X3X3X3X3X3X3X3X3X3X3X3X3X3X3X3X3X3X3X3X3X3X3Xf.p > * - - - 1 * # t.3X3XI.+ - - -     ",
"      - & } _ F.3X3XV.X - - - * ; 3.E S.3X3X3X3X3X3X3X3X3X3X3X3X3X3X3X3X3X3X3X3X3X3X3X3XM.a & - - - - - $ k #X3X3XS + - -       ",
"      - & 7 4.[ >X3X4Xb + - - * < 3.E 9.l.l.l.l.l.l.l.l.l.l.l.l.l.l.l.l.l.l.l.l.l.l.l.x.m $ - - - - - * # n.3X3XP.+ - - -       ",
"        - = | ` a.3X3XXX- % - - < 5.;.! W W W W W W W W W W W W W W W W W W W W W W W , % - - - * 1 - + @.2X3X5Xr @ - - -       ",
"        - * 5 5.Y ).3X3XK.X * - : ] } } } | } } } } | } } | } } | } } } | } } } | } z * - - - - - * & d &X3X3XP X - - -         ",
"          - = z 3.M ;X3X3Xh.X * - & & & & & & & & & & * & & & & & & & & & & & & & & & - - - - - - @ 4 _.3X3XP.+ - - -           ",
"          - - * X.=.0.2X3X3XI X - - - - - - - - - - - - - - - - - - : - - - : - : - - - - - - - @ - ~.3X3X X1 % - - -           ",
"            - * < 3.) a.3X3X3Xh.X @ - - - - - - - * - - - - - - - - - - - - - - - - - - - - - + 2 I.3X3X*Xr @ 1 - -             ",
"              - & 7 6.W a.3X3X3XL.- X - - - - - - - - - - - - - - - - - - - - - - - - - - * X i XX3X3X$Xu + * - -               ",
"              - - & d 6.W p.4X3X3XXXV . @ - - - - - - - - - - - - - - - - - - - - - - - @ @ L :X3X3X.Xt + - - - -               ",
"                - * $ d 5.( 9.%X3X3X4XC.q X @ - - - - - - - - - - - - - - - - - - - @ . C I.3X3X3X~.5 + - - - -                 ",
"                  - - & 7 <.=.+.~.3X3X3X:XB.e + + % - - - - - - - - - - : - - @ X @ C L.2X3X3X2Xl.# % 1 - - -                   ",
"                    - - & ; } 2.Y p.%X3X3X3X:XL.D 0 @ X X @ @ @ @ @ @ + X . @ r L (.3X3X3X3X'.B O % 1 * - -                     ",
"                      - - * & k <.=.~ S.;X3X3X3X3X=XI.V.J S i t t u V G P C.{.5X3X3X3X3XOXu.a @ * - - - -                       ",
"                          - - = 5 ] 3._ [ j.|.3X3X3X3X3X3X3X2X1X4X4X2X3X3X3X3X3X3X,X/.t.l # & - - - -                           ",
"                            - - * = 6 ] 1.-.Q @.l.{.:X3X3X3X3X3X3X3X3X3X3X4X@X!.b.#.g > $ * - - - -                             ",
"                                - - & & 4 k o.:.-._ { %.y.x.R.T.T.R.R.b.t.*.O.Y s ; & * - - - -                                 ",
"                                  - - - * & & 5 f T |  .......` _ ( Q Y g a 4 & & - - - - - -                                   ",
"                                        - - - * $ & & * < 4 5 4 4 < * & & & * 1 - - - -                                         ",
"                                            - - - - * * * * * * * - - - - - * - - -                                             ",
"                                                    - - - - - - - - - - - -                                                     "
};
