/* XPM */
static char *a245ccb27b3349ffb80a892cae1dd687[] = {
/* columns rows colors chars-per-pixel */
"64 64 2 1 ",
"  c None",
". c #111111",
/* pixels */
"                                                                ",
"                                                                ",
"                                                                ",
"                                                                ",
"                               ...                              ",
"                           ............                         ",
"                       ...................                      ",
"                     ........... ...........                    ",
"                   ......               ......                  ",
"                 ......                   ......                ",
"                .....                        ....               ",
"              .....                           .....             ",
"             .....                              ....            ",
"             ...                                 ....           ",
"           ....                                   ....          ",
"           ...                                     ....         ",
"          ...                                       ...         ",
"         ....                                        ...        ",
"         ...                                         ....       ",
"        ...         .........................         ...       ",
"       ....         .........................          ...      ",
"       ...          .........................          ...      ",
"       ...          ...........................         ...     ",
"      ...           ...........................         ...     ",
"      ...           ...........................          ..     ",
"      ..            .........       ...........          ..     ",
"      ..            ..........      ...........          ...    ",
"     ...            ...........     ...........          ...    ",
"     ..             ...........     ...........          ...    ",
"     ..             ...........     ...........           ..    ",
"     ..             .........................             ..    ",
"    ...             .........................             ..    ",
"    ...             .........................             ..    ",
"    ...             .........................             ..    ",
"     ..             .........................             ..    ",
"     ..             .........................             ..    ",
"     ..             .........       ...........           ..    ",
"     ...            ..........      ...........          ...    ",
"     ...            ...........     ...........          ...    ",
"      ..            ...........     ...........          ...    ",
"      ...           ...........     ...........          ..     ",
"      ...           ...........................         ...     ",
"      ...           ...........................         ...     ",
"       ...          ...........................        ...      ",
"       ...          .........................          ...      ",
"        ...         .........................         ...       ",
"        ...         ........................          ...       ",
"         ...                                         ...        ",
"          ...                                       ...         ",
"          ....                                     ....         ",
"           ....                                   ....          ",
"            ....                                 ....           ",
"             ....                               ....            ",
"              ....                             ....             ",
"               .....                         .....              ",
"                ......                     ......               ",
"                  ......                 ......                 ",
"                    ........          .......                   ",
"                      .....................                     ",
"                         ...............                        ",
"                              ......                            ",
"                                                                ",
"                                                                ",
"                                                                "
};
