/* XPM */
static char *_8dccd6ea5974fc0977be29bac3f10f9[] = {
/* columns rows colors chars-per-pixel */
"16 16 2 1 ",
"  c None",
". c #111111",
/* pixels */
"                ",
"                ",
"                ",
"  ...........   ",
"  ............  ",
"  ....   .....  ",
"  .....  .....  ",
"  ...........   ",
"  ...........   ",
"  ....   ....   ",
"  .....  .....  ",
"  .....  .....  ",
"  ...........   ",
"   .........    ",
"                ",
"                "
};
