/* XPM */
static char *result[] = {
/* columns rows colors chars-per-pixel */
"32 32 174 2 ",
"   c black",
".  c #010101",
"X  c #000103",
"o  c #020202",
"O  c #030203",
"+  c #060606",
"@  c gray5",
"#  c #12070D",
"$  c #001102",
"%  c #111111",
"&  c #131313",
"*  c #181818",
"=  c #1D1D1D",
"-  c #2C0000",
";  c #390005",
":  c #290015",
">  c #282828",
",  c gray16",
"<  c #2A2A2A",
"1  c #2F2F2F",
"2  c gray19",
"3  c gray20",
"4  c #3A3A3A",
"5  c gray23",
"6  c #3F3E3F",
"7  c #3F3F3F",
"8  c #460000",
"9  c #4A0000",
"0  c #440015",
"q  c #4E0017",
"w  c #4C0018",
"e  c #4D0018",
"r  c #4E0018",
"t  c #56001B",
"y  c #68000B",
"u  c #790007",
"i  c #650017",
"p  c #5B0025",
"a  c #4A1023",
"s  c #4A302D",
"d  c #403033",
"f  c #204C3E",
"g  c #643F48",
"h  c #434343",
"j  c #484848",
"k  c gray30",
"l  c #55454B",
"z  c #505050",
"x  c #535353",
"c  c #555555",
"v  c #5B5B5B",
"b  c #7F5755",
"n  c gray38",
"m  c #646464",
"M  c #6C706F",
"N  c #7E7E7E",
"B  c #810016",
"V  c #8D001E",
"C  c #98001B",
"Z  c #A2001C",
"A  c #B0001D",
"S  c #B2001F",
"D  c #8F0022",
"F  c #900022",
"G  c #9A0028",
"H  c #A90026",
"J  c #A5002A",
"K  c #AF0D45",
"L  c #AE0E45",
"P  c #AF0E45",
"I  c #B30D47",
"U  c #B10F46",
"Y  c #A71545",
"T  c #BE144F",
"R  c #BA0254",
"E  c #A13E4B",
"W  c #BC3453",
"Q  c #DD0C5F",
"!  c #8E4551",
"~  c #A6455C",
"^  c #AB4860",
"/  c #B44562",
"(  c #B64463",
")  c #B54663",
"_  c #B84C68",
"`  c #AC576C",
"'  c #91737C",
"]  c #AA6A6C",
"[  c #BD647C",
"{  c #C5506F",
"}  c #D57D92",
"|  c #7F8181",
" . c #758882",
".. c #818181",
"X. c #838383",
"o. c #848484",
"O. c gray52",
"+. c gray55",
"@. c #8D8D8D",
"#. c #918C8C",
"$. c #909090",
"%. c #929292",
"&. c #949394",
"*. c gray59",
"=. c #989898",
"-. c gray62",
";. c #A48683",
":. c #A59992",
">. c #B59492",
",. c #B59D9B",
"<. c #A0A0A0",
"1. c gray64",
"2. c #A5A5A5",
"3. c gray65",
"4. c gray66",
"5. c #ACACAC",
"6. c #AEAEAE",
"7. c #B4B3A7",
"8. c #B5B3A7",
"9. c #B5B4A8",
"0. c #BBB6AE",
"q. c #B1B1B1",
"w. c #B2B2B2",
"e. c #B4B4B4",
"r. c #B7B7B7",
"t. c #BBBBBB",
"y. c #BCBCBC",
"u. c #BDBEBE",
"i. c #CA9198",
"p. c #FCBDD3",
"a. c #C6C6C6",
"s. c #CAC7C2",
"d. c #CBC6C8",
"f. c #D0D6CE",
"g. c #DBD1CF",
"h. c #D4D6D0",
"j. c #D4D7D0",
"k. c #D5D4D6",
"l. c #D7DAD3",
"z. c #DDDAD7",
"x. c #DADADA",
"c. c gray87",
"v. c #D3E5D9",
"b. c #E3E5DD",
"n. c #FBD3E2",
"m. c #E2E2E2",
"M. c #E2E5E4",
"N. c #ECE1E4",
"B. c #E8E7E8",
"V. c gray91",
"C. c #E9E9E9",
"Z. c #F4EBEC",
"A. c #F5EFF0",
"S. c #F7EFF0",
"D. c #ECF6F3",
"F. c #F1F1F1",
"G. c #F3F3F3",
"H. c gray96",
"J. c #F6F6F6",
"K. c #F9F1F1",
"L. c #F8F3F4",
"P. c #F9F6F5",
"I. c #FBF4FA",
"U. c #F2FFFF",
"Y. c gray98",
"T. c #FBFBFB",
"R. c #F9FFFF",
"E. c #FAFFFE",
"W. c #FAFFFF",
"Q. c #FBFFFF",
"!. c #FDFFFF",
"~. c #FEFEFE",
"^. c white",
"/. c None",
/* pixels */
"/./././././././././././.^.^.^.^.^.^.^.^././././././././././././.",
"/././././././././.^.^.^.m.q.=.@.+.*.6.c.^.^.^./././././././././.",
"/././././././.^.^.~.5.x %             @ k 1.J.^.^./././././././.",
"/./././././.^.^.4.2                         > <.^.^././././././.",
"/././././.^.Y.m                                 v G.^./././././.",
"/./././.^.B.4                                     < x.^././././.",
"/././.^.Y.6                                         1 J.^./././.",
"/./.^.^.n         O                       o .         z ^.^././.",
"/./.^.w.        g d.u.y.y.y.y.y.y.y.y.y.t.a.3.          <.^././.",
"/.^.T.,       i { ^.^.^.^.^.^.^.^.^.^.^.^.^.F.j =       * F.^./.",
"/.^.e.        J ( R.^.^.^.^.^.^.^.^.^.^.^.^.~.~.X.        1.^./.",
"/.^.c         D ) Q.^.^.^.A.! ^ ` b g.^.^.^.^.^.o.        h ^./.",
"^.C.&         F ) Q.^.^.^.P.[ B Z u 8.^.^.^.^.^.N         + x.^.",
"^.r.          F ) Q.^.^.^.^.U.$ - A 7.^.^.^.!.^.&.          2.^.",
"^.-.          F ) Q.^.^.^.^.H. .' } z.^.^.^.Z.i.l           $.^.",
"^.%.          F ) Q.^.^.^.^.^.^.^.^.^.^.^.^.n.9             O.^.",
"^.%.          F ) Q.^.^.^.^.^.^.^.^.^.^.^.^.k.              O.^.",
"^.-.          F ) Q.^.^.^.L.;.>.,.:.N.^.^.^.M.M 3           $.^.",
"^.r.          F ) Q.^.^.^.S.E C H y 0.^.^.^.^.^.@.          2.^.",
"^.C.&         F ) Q.^.^.^.^.I.# 8 S 9.^.^.^.^.^...        + x.^.",
"/.^.c         F ) Q.^.^.^.^.D.f s W s.^.^.^.^.^.|         h ^./.",
"/.^.e.        F / W.^.^.^.^.^.^.^.^.^.^.^.^.E.^.#.        1.^./.",
"/.^.T.,       V _ ^.^.^.^.^.^.^.^.^.^.^.^.^.K.] d       * F.^./.",
"/./.^.w.      G ~ v.l.h.j.j.j.j.j.j.j.j.f.b.p.;         <.^././.",
"/./.^.^.n     R Q Y U K P P P P P P P L I T a X       z ^.^././.",
"/././.^.Y.7   : p q e r r r r r r r r w t 0         1 J.^./././.",
"/./././.^.V.5                                     < x.^././././.",
"/././././.^.Y.m                                 v G.^./././././.",
"/./././././.^.^.4.2                         > <.^.^././././././.",
"/././././././.^.^.~.5.x %             @ k 1.J.^.^./././././././.",
"/././././././././.^.^.^.m.q.=.+.+.*.6.c.^.^.^./././././././././.",
"/./././././././././././.^.^.^.^.^.^.^.^././././././././././././."
};
