/* XPM */
static char *_589401202721[] = {
/* columns rows colors chars-per-pixel */
"16 16 185 2 ",
"   c #000002",
".  c #000004",
"X  c #000006",
"o  c #050004",
"O  c #000008",
"+  c #000309",
"@  c #00050A",
"#  c #00050B",
"$  c #00060C",
"%  c #00070C",
"&  c #02080F",
"*  c #10010F",
"=  c #030810",
"-  c #030A11",
";  c #060911",
":  c #070911",
">  c #040A10",
",  c #040B12",
"<  c #070A12",
"1  c #040D13",
"2  c #030F14",
"3  c #050F15",
"4  c #060F15",
"5  c #070F15",
"6  c #080912",
"7  c #080A13",
"8  c #090D13",
"9  c #0A0C15",
"0  c #0B0C15",
"q  c #120110",
"w  c #130413",
"e  c #140513",
"r  c #140714",
"t  c #1D0516",
"y  c #110814",
"u  c #100914",
"i  c #120814",
"p  c #120815",
"a  c #160815",
"s  c #150916",
"d  c #100D15",
"f  c #180816",
"g  c #021015",
"h  c #081016",
"j  c #091117",
"k  c #0A1419",
"l  c #0A151A",
"z  c #0B171B",
"x  c #0B181C",
"c  c #1A131D",
"v  c #330017",
"b  c #320117",
"n  c #20111D",
"m  c #24101F",
"M  c #320C20",
"N  c #300F20",
"B  c #251422",
"V  c #2B1725",
"C  c #341024",
"Z  c #381226",
"A  c #112325",
"S  c #152025",
"D  c #172125",
"F  c #1F222A",
"G  c #182529",
"H  c #1A272B",
"J  c #1C262B",
"K  c #1A2A2D",
"L  c #2F212D",
"P  c #202A2F",
"I  c #212D31",
"U  c #232F34",
"Y  c #3C2E3A",
"T  c #691F3C",
"R  c #781038",
"E  c #432133",
"W  c #4A2034",
"Q  c #4A2638",
"!  c #4F2438",
"~  c #6F213F",
"^  c #333E42",
"/  c #373E43",
"(  c #463542",
")  c #5C3F4D",
"_  c #7F304E",
"`  c #354044",
"'  c #384346",
"]  c #394448",
"[  c #3E4449",
"{  c #485557",
"}  c #495558",
"|  c #4F555A",
" . c #634556",
".. c #624B57",
"X. c #585C60",
"o. c #5E6A6C",
"O. c #5F6C6D",
"+. c #616266",
"@. c #6E6A71",
"#. c #6F7175",
"$. c #78747A",
"%. c #77797D",
"&. c #820D31",
"*. c #811B3A",
"=. c #823150",
"-. c #923255",
";. c #933255",
":. c #953557",
">. c #963557",
",. c #9E5E77",
"<. c #AF4D70",
"1. c #B14F71",
"2. c #B35E7D",
"3. c #AE607D",
"4. c #B0617E",
"5. c #B2617E",
"6. c #B16480",
"7. c #A37F8F",
"8. c #AB7A8A",
"9. c #C1738E",
"0. c #C57792",
"q. c #D07995",
"w. c #86898D",
"e. c #8A898E",
"r. c #8A8D90",
"t. c #8B8E92",
"y. c #8E9093",
"u. c #8E9094",
"i. c #8C9395",
"p. c #8D9497",
"a. c #969498",
"s. c #9E969D",
"d. c #AC8796",
"f. c #A18F97",
"g. c #AB8E98",
"h. c #A3989F",
"j. c #9F9CA0",
"k. c #BF8EA2",
"l. c #AD9FA6",
"z. c #AE9EA6",
"x. c #B89EA9",
"c. c #BC9FAA",
"v. c #A3A5A7",
"b. c #BFA0AC",
"n. c #B8A4AE",
"m. c #B5ABB1",
"M. c #B7ABB2",
"N. c #B7ADB2",
"B. c #BCAAB3",
"V. c #C58DA2",
"C. c #C492A5",
"Z. c #C890A4",
"A. c #C29DAB",
"S. c #C19FAD",
"D. c #CD9BAD",
"F. c #CC9CAD",
"G. c #CE9CAD",
"H. c #CD9EAF",
"J. c #D991AA",
"K. c #DC96AE",
"L. c #C1A1AE",
"P. c #C3A0AE",
"I. c #CDAEB9",
"U. c #D5A3B2",
"Y. c #D0B2BC",
"T. c #DFB2BF",
"R. c #C8C8CA",
"E. c #D7C8CE",
"W. c #CBCFD0",
"Q. c #F2D6E0",
"!. c #F6DBE3",
"~. c #F2E3E8",
"^. c #F5E5EA",
"/. c #E3F2EE",
"(. c #F3F1F2",
"). c #F8F5F6",
"_. c #FAF9FA",
"`. c #FDF9FB",
"'. c #FEF8FA",
"]. c #FEF9FA",
"[. c #FFF9FB",
"{. c #FFFAFB",
"}. c #F8FFFE",
"|. c white",
" X c None",
/* pixels */
" X X X X X1 P ' ' U h  X X X X X",
" X X X= ' l.A.k.V.D.z.} =  X X X",
" X X> %.n.) n p r N =.J.i.j  X X",
" X& $.a.>   # $ $ #   b q.i.=  X",
" X( m.0 L e.r.i.p.r.w.A v K.{  X",
"6 d.| O :.|.|.!.Q.|.|.v.$ =.v.0 ",
"V L.S 6 -.'.|.8.&.~.|.R.g M G.I ",
"Q x.k 0 -.'.|./.E.{.'...g t Z./ ",
"! x.k 0 -.'.|.T.U.)._.+.4 s C.^ ",
"C U.H 6 -.'.|.g.*.^.|.W.4 m L.J ",
"s 0.o.X :.|.|.}.(.|.|.f.O  .s.> ",
" X~ Y.S R 2.3.5.6.5.,.c d B./  X",
" Xp 1.m.F o * w e * X j l.#.&  X",
" X Xt <.I.O.K x z H X.M.@.&  X X",
" X X Xp T 9.D.L.c.S.7.Y &  X X X",
" X X X X Xi C W E B >  X X X X X"
};
